{"accessors":[{"bufferView":2,"componentType":5126,"count":6720,"max":[240.8004150390625,238.90435791015625,81.227485656738281],"min":[-240.8004150390625,-238.90435791015625,-81.227485656738281],"type":"VEC3"},{"bufferView":2,"byteOffset":80640,"componentType":5126,"count":6720,"max":[1,1,1],"min":[-1,-1,-1],"type":"VEC3"},{"bufferView":1,"componentType":5126,"count":6720,"max":[1,0.99891912937164307],"min":[0.0010671672644093633,0],"type":"VEC2"},{"bufferView":3,"componentType":5126,"count":6720,"max":[0.99999988079071045,0.92385143041610718,0.99998897314071655,-1],"min":[-0.99999964237213135,-0.99999982118606567,-0.99965262413024902,-1],"type":"VEC4"},{"bufferView":0,"componentType":5125,"count":37920,"max":[6719],"min":[0],"type":"SCALAR"}],"asset":{"generator":"Sketchfab (OSG glTF plugin)","version":"2.0"},"bufferViews":[{"buffer":0,"byteLength":151680,"byteOffset":0,"name":"ScalarBufferView","target":34962},{"buffer":0,"byteLength":53760,"byteOffset":151680,"byteStride":8,"name":"Vec2BufferView","target":34962},{"buffer":0,"byteLength":161280,"byteOffset":205440,"byteStride":12,"name":"Vec3BufferView","target":34962},{"buffer":0,"byteLength":107520,"byteOffset":366720,"byteStride":16,"name":"Vec4BufferView","target":34962}],"buffers":[{"byteLength":474240,"uri":"scene.bin"}],"images":[{"uri":"textures\/Material_94_baseColor.png"}],"materials":[{"doubleSided":true,"emissiveFactor":[0,0,0],"name":"Material_94","pbrMetallicRoughness":{"baseColorFactor":[1,1,1,1],"baseColorTexture":{"index":0,"texCoord":0},"metallicFactor":0,"roughnessFactor":0.98737926629999995}}],"meshes":[{"name":"root","primitives":[{"attributes":{"NORMAL":1,"POSITION":0,"TANGENT":3,"TEXCOORD_0":2},"indices":4,"material":0,"mode":4}]}],"nodes":[{"children":[1],"name":"RootNode (gltf orientation matrix)","rotation":[-0.70710678118654746,-0,-0,0.70710678118654757]},{"children":[2],"name":"RootNode (model correction matrix)"},{"children":[3],"matrix":[1,0,0,0,0,0,1,0,0,-1,0,0,0,0,0,1],"name":"9f8f30395a844582947780f61fdf81de.fbx"},{"children":[4],"name":"RootNode"},{"children":[5],"name":"root"},{"children":[6],"matrix":[0.72058141231536865,-0.37242516875267029,0.58485710620880127,0,0.65027925953523202,0.6557032663339093,-0.38364712548965824,0,-0.24061346910937495,0.65677107034784077,0.71466972985684529,0,2.1198108196258545,-11.770307540893555,199.98811340332031,1],"name":""},{"mesh":0,"name":"root"}],"samplers":[{"magFilter":9729,"minFilter":9987,"wrapS":10497,"wrapT":10497}],"scene":0,"scenes":[{"name":"OSG_Scene","nodes":[0]}],"textures":[{"sampler":0,"source":0}]}
